<svg id="Layer_1" data-name="Layer 1" xmlns="http://www.w3.org/2000/svg" viewBox="0 0 180.22 180.22"><defs><style>.cls-1{fill:#fff;}</style></defs><title>CL White</title><path class="cls-1" d="M115.69,140.49H82.42v-7.74l.76,0c29.56,
0,
48.28-17.28,
48.28-37,
0-8.71-4.29-14.28-8.86-14.28-2.28,
0-3.71,
1.28-3.71,
3,
0,
3.29,
4.42,
5.86,
4.42,
12.57,
0,
15.71-14.42,
31-36.13,
31a47.38,47.38,0,0,1-4.76-.24V64.94c0-11.57,1.43-16.71,8.57-16.71h.57V43.94H60.85v4.28h.86c6.85,0,8.43,5.28,8.43,16.71v58.84c0,.29,0,.56,0,.85C55,117.9,45.9,101.6,45.9,78.49c0-26.85,15-44.84,38.42-44.84,15.86,0,29.14,8,35.71,21.7l3.72-.28V27.8a30,30,0,0,1-15.86,4.71c-2,0-3.13-.14-3.57-.14-3,0-10.42-3-22.42-3-30.56,0-50.42,21.41-50.42,51.41,0,25.27,15.05,45,38.3,50.47-.78,6.34-3,9.23-8.36,9.23h-.57v4.28H146V121.49h-4.28C137,135.21,129.26,140.49,115.69,140.49Zm7.42-55.1c2,.55,4.52,4.19,4.52,10.38a27.11,27.11,0,0,1-1.23,8.1,31.75,31.75,0,0,0,.73-6.81,19,19,0,0,0-3.35-10.52C123.58,86.2,123.32,85.78,123.11,85.39ZM119.92,34V47.62A40.82,40.82,0,0,0,108,36.33,31.63,31.63,0,0,0,119.92,34ZM35.3,80.78c0-19.43,8.73-34.51,23.13-42.12C48.15,47.1,42.08,61.09,42.08,78.49c0,21.54,7.81,38,21.09,46.66C46.11,118.1,35.3,101.79,35.3,80.78Zm34.81-33H82.39C78.6,52,78.6,59.42,78.6,64.94v62.31a40,40,0,0,1-4.65-1.18c0-.8,0-1.58,0-2.3V64.94C74,59.72,74,52.11,70.12,47.77Zm8.48,93.18H70c2.11-2.33,3.09-5.61,3.54-9q2.46.4,5,.59v8.36Zm63.55,0H131.4a26.21,26.21,0,0,0,10.74-11Z"/><path class="cls-1" d="M90.11,0a90.11,90.11,0,1,0,90.11,90.11A90.11,90.11,0,0,0,90.11,0Zm0,176.4A86.29,86.29,0,1,1,176.4,90.11,86.38,86.38,0,0,1,90.11,176.4Z"/></svg>

